<?xml version="1.0" standalone="no"?>
 <!DOCTYPE svg PUBLIC "-//W3C//DTD SVG 1.1//EN" 
 "http://www.w3.org/Graphics/SVG/1.1/DTD/svg11.dtd"> 
<svg
  xmlns:svg="http://www.w3.org/2000/svg"
  xmlns="http://www.w3.org/2000/svg"
  xmlns:xlink="http://www.w3.org/1999/xlink"
  version="1.1"
  width="5.448300cm" height="7.332980cm" viewBox="0 0 21450 28870">
<title>SVG Picture created as ESP32-WROVER-B.svg date 2020/10/21 16:37:18 </title>
  <desc>Picture generated by Eeschema-SVG </desc>
<g style="fill:#000000; fill-opacity:1;stroke:#000000; stroke-opacity:1;
stroke-linecap:round; stroke-linejoin:round;"
 transform="translate(0 0) scale(1 1)">
</g>
<g style="fill:#840000; fill-opacity:0.0; 
stroke:#840000; stroke-width:-10; stroke-opacity:1; 
stroke-linecap:round; stroke-linejoin:round;">
</g>
<g style="fill:#FFFFC2; fill-opacity:0.0; 
stroke:#FFFFC2; stroke-width:-10; stroke-opacity:1; 
stroke-linecap:round; stroke-linejoin:round;">
</g>
<g style="fill:#FFFFC2; fill-opacity:0.6; 
stroke:#FFFFC2; stroke-width:0; stroke-opacity:1; 
stroke-linecap:round; stroke-linejoin:round;">
<rect x="4220" y="3430" width="13500" height="22500" rx="0" />
</g>
<g style="fill:#840000; fill-opacity:0.6; 
stroke:#840000; stroke-width:0; stroke-opacity:1; 
stroke-linecap:round; stroke-linejoin:round;">
</g>
<g style="fill:#840000; fill-opacity:0.0; 
stroke:#840000; stroke-width:60; stroke-opacity:1; 
stroke-linecap:round; stroke-linejoin:round;">
<rect x="4220" y="3430" width="13500" height="22500" rx="0" />
</g>
<g style="fill:#FFFFC2; fill-opacity:0.0; 
stroke:#FFFFC2; stroke-width:60; stroke-opacity:1; 
stroke-linecap:round; stroke-linejoin:round;">
</g>
<g style="fill:#FFFFC2; fill-opacity:0.6; 
stroke:#FFFFC2; stroke-width:0; stroke-opacity:1; 
stroke-linecap:round; stroke-linejoin:round;">
<rect x="4220" y="1930" width="13500" height="2500" rx="0" />
</g>
<g style="fill:#840000; fill-opacity:0.6; 
stroke:#840000; stroke-width:0; stroke-opacity:1; 
stroke-linecap:round; stroke-linejoin:round;">
</g>
<g style="fill:#840000; fill-opacity:0.0; 
stroke:#840000; stroke-width:60; stroke-opacity:1; 
stroke-linecap:round; stroke-linejoin:round;">
<rect x="4220" y="1930" width="13500" height="2500" rx="0" />
<rect x="4220" y="3430" width="13500" height="22500" rx="0" />
<rect x="4220" y="1930" width="13500" height="2500" rx="0" />
<path style="fill:#840000; fill-opacity:0.0; 
stroke:#840000; stroke-width:60; stroke-opacity:1; 
stroke-linecap:round; stroke-linejoin:round;fill:none"
d="M 15720,2430
16720,2430
16720,4430
" /> 
<path style="fill:#840000; fill-opacity:0.0; 
stroke:#840000; stroke-width:60; stroke-opacity:1; 
stroke-linecap:round; stroke-linejoin:round;fill:none"
d="M 5720,2430
7220,2430
7220,3930
8220,3930
8220,2430
9720,2430
9720,3930
11220,3930
11220,2430
12720,2430
12720,3930
14220,3930
14220,2430
15720,2430
15720,4430
" /> 
<path d="M4220 5930
L2220 5930
" />
</g>
<g style="fill:#008484; fill-opacity:0.0; 
stroke:#008484; stroke-width:60; stroke-opacity:1; 
stroke-linecap:round; stroke-linejoin:round;">
<text x="4420" y="6180"
textLength="1390" font-size="660" lengthAdjust="spacingAndGlyphs"
text-anchor="start" opacity="0">3V3</text>
<path d="M4520 5650
L4830 5650
L4660 5840
L4730 5840
L4780 5870
L4800 5890
L4830 5940
L4830 6060
L4800 6100
L4780 6130
L4730 6150
L4590 6150
L4540 6130
L4520 6100
" />
<path d="M4970 5650
L5140 6150
L5300 5650
" />
<path d="M5420 5650
L5730 5650
L5560 5840
L5640 5840
L5680 5870
L5710 5890
L5730 5940
L5730 6060
L5710 6100
L5680 6130
L5640 6150
L5490 6150
L5450 6130
L5420 6100
" />
</g>
<g style="fill:#840000; fill-opacity:0.0; 
stroke:#840000; stroke-width:60; stroke-opacity:1; 
stroke-linecap:round; stroke-linejoin:round;">
<text x="3220" y="5830"
textLength="540" font-size="660" lengthAdjust="spacingAndGlyphs"
text-anchor="middle" opacity="0">1</text>
<path d="M3360 5800
L3070 5800
" />
<path d="M3220 5800
L3220 5300
L3170 5370
L3120 5420
L3070 5440
" />
<path d="M4220 14930
L2220 14930
" />
</g>
<g style="fill:#008484; fill-opacity:0.0; 
stroke:#008484; stroke-width:60; stroke-opacity:1; 
stroke-linecap:round; stroke-linejoin:round;">
<text x="4420" y="15180"
textLength="1770" font-size="660" lengthAdjust="spacingAndGlyphs"
text-anchor="start" opacity="0">IO26</text>
<path d="M4560 15150
L4560 14650
" />
<path d="M4900 14650
L4990 14650
L5040 14680
L5090 14720
L5110 14820
L5110 14980
L5090 15080
L5040 15130
L4990 15150
L4900 15150
L4850 15130
L4800 15080
L4780 14980
L4780 14820
L4800 14720
L4850 14680
L4900 14650
" />
<path d="M5300 14700
L5330 14680
L5370 14650
L5490 14650
L5540 14680
L5560 14700
L5590 14750
L5590 14790
L5560 14870
L5280 15150
L5590 15150
" />
<path d="M6020 14650
L5920 14650
L5870 14680
L5850 14700
L5800 14770
L5780 14870
L5780 15060
L5800 15100
L5830 15130
L5870 15150
L5970 15150
L6020 15130
L6040 15100
L6060 15060
L6060 14940
L6040 14890
L6020 14870
L5970 14840
L5870 14840
L5830 14870
L5800 14890
L5780 14940
" />
</g>
<g style="fill:#840000; fill-opacity:0.0; 
stroke:#840000; stroke-width:60; stroke-opacity:1; 
stroke-linecap:round; stroke-linejoin:round;">
<text x="3220" y="14830"
textLength="1010" font-size="660" lengthAdjust="spacingAndGlyphs"
text-anchor="middle" opacity="0">10</text>
<path d="M3120 14800
L2830 14800
" />
<path d="M2980 14800
L2980 14300
L2930 14370
L2880 14420
L2830 14440
" />
<path d="M3430 14300
L3480 14300
L3520 14330
L3550 14350
L3570 14400
L3600 14490
L3600 14610
L3570 14710
L3550 14750
L3520 14780
L3480 14800
L3430 14800
L3380 14780
L3360 14750
L3330 14710
L3310 14610
L3310 14490
L3330 14400
L3360 14350
L3380 14330
L3430 14300
" />
<path d="M4220 15930
L2220 15930
" />
</g>
<g style="fill:#008484; fill-opacity:0.0; 
stroke:#008484; stroke-width:60; stroke-opacity:1; 
stroke-linecap:round; stroke-linejoin:round;">
<text x="4420" y="16180"
textLength="1770" font-size="660" lengthAdjust="spacingAndGlyphs"
text-anchor="start" opacity="0">IO27</text>
<path d="M4560 16150
L4560 15650
" />
<path d="M4900 15650
L4990 15650
L5040 15680
L5090 15720
L5110 15820
L5110 15980
L5090 16080
L5040 16130
L4990 16150
L4900 16150
L4850 16130
L4800 16080
L4780 15980
L4780 15820
L4800 15720
L4850 15680
L4900 15650
" />
<path d="M5300 15700
L5330 15680
L5370 15650
L5490 15650
L5540 15680
L5560 15700
L5590 15750
L5590 15790
L5560 15870
L5280 16150
L5590 16150
" />
<path d="M5750 15650
L6090 15650
L5870 16150
" />
</g>
<g style="fill:#840000; fill-opacity:0.0; 
stroke:#840000; stroke-width:60; stroke-opacity:1; 
stroke-linecap:round; stroke-linejoin:round;">
<text x="3220" y="15830"
textLength="1010" font-size="660" lengthAdjust="spacingAndGlyphs"
text-anchor="middle" opacity="0">11</text>
<path d="M3120 15800
L2830 15800
" />
<path d="M2980 15800
L2980 15300
L2930 15370
L2880 15420
L2830 15440
" />
<path d="M3600 15800
L3310 15800
" />
<path d="M3450 15800
L3450 15300
L3410 15370
L3360 15420
L3310 15440
" />
<path d="M4220 16930
L2220 16930
" />
</g>
<g style="fill:#008484; fill-opacity:0.0; 
stroke:#008484; stroke-width:60; stroke-opacity:1; 
stroke-linecap:round; stroke-linejoin:round;">
<text x="4420" y="17180"
textLength="1770" font-size="660" lengthAdjust="spacingAndGlyphs"
text-anchor="start" opacity="0">IO14</text>
<path d="M4560 17150
L4560 16650
" />
<path d="M4900 16650
L4990 16650
L5040 16680
L5090 16720
L5110 16820
L5110 16980
L5090 17080
L5040 17130
L4990 17150
L4900 17150
L4850 17130
L4800 17080
L4780 16980
L4780 16820
L4800 16720
L4850 16680
L4900 16650
" />
<path d="M5590 17150
L5300 17150
" />
<path d="M5450 17150
L5450 16650
L5400 16720
L5350 16770
L5300 16790
" />
<path d="M6020 16820
L6020 17150
" />
<path d="M5900 16630
L5780 16980
L6090 16980
" />
</g>
<g style="fill:#840000; fill-opacity:0.0; 
stroke:#840000; stroke-width:60; stroke-opacity:1; 
stroke-linecap:round; stroke-linejoin:round;">
<text x="3220" y="16830"
textLength="1010" font-size="660" lengthAdjust="spacingAndGlyphs"
text-anchor="middle" opacity="0">12</text>
<path d="M3120 16800
L2830 16800
" />
<path d="M2980 16800
L2980 16300
L2930 16370
L2880 16420
L2830 16440
" />
<path d="M3310 16350
L3330 16330
L3380 16300
L3500 16300
L3550 16330
L3570 16350
L3600 16400
L3600 16440
L3570 16520
L3290 16800
L3600 16800
" />
<path d="M4220 17930
L2220 17930
" />
</g>
<g style="fill:#008484; fill-opacity:0.0; 
stroke:#008484; stroke-width:60; stroke-opacity:1; 
stroke-linecap:round; stroke-linejoin:round;">
<text x="4420" y="18180"
textLength="1770" font-size="660" lengthAdjust="spacingAndGlyphs"
text-anchor="start" opacity="0">IO12</text>
<path d="M4560 18150
L4560 17650
" />
<path d="M4900 17650
L4990 17650
L5040 17680
L5090 17720
L5110 17820
L5110 17980
L5090 18080
L5040 18130
L4990 18150
L4900 18150
L4850 18130
L4800 18080
L4780 17980
L4780 17820
L4800 17720
L4850 17680
L4900 17650
" />
<path d="M5590 18150
L5300 18150
" />
<path d="M5450 18150
L5450 17650
L5400 17720
L5350 17770
L5300 17790
" />
<path d="M5780 17700
L5800 17680
L5850 17650
L5970 17650
L6020 17680
L6040 17700
L6060 17750
L6060 17790
L6040 17870
L5750 18150
L6060 18150
" />
</g>
<g style="fill:#840000; fill-opacity:0.0; 
stroke:#840000; stroke-width:60; stroke-opacity:1; 
stroke-linecap:round; stroke-linejoin:round;">
<text x="3220" y="17830"
textLength="1010" font-size="660" lengthAdjust="spacingAndGlyphs"
text-anchor="middle" opacity="0">13</text>
<path d="M3120 17800
L2830 17800
" />
<path d="M2980 17800
L2980 17300
L2930 17370
L2880 17420
L2830 17440
" />
<path d="M3290 17300
L3600 17300
L3430 17490
L3500 17490
L3550 17520
L3570 17540
L3600 17590
L3600 17710
L3570 17750
L3550 17780
L3500 17800
L3360 17800
L3310 17780
L3290 17750
" />
<path d="M4220 18930
L2220 18930
" />
</g>
<g style="fill:#008484; fill-opacity:0.0; 
stroke:#008484; stroke-width:60; stroke-opacity:1; 
stroke-linecap:round; stroke-linejoin:round;">
<text x="4420" y="19180"
textLength="1580" font-size="660" lengthAdjust="spacingAndGlyphs"
text-anchor="start" opacity="0">GND</text>
<path d="M4830 18680
L4780 18650
L4710 18650
L4640 18680
L4590 18720
L4560 18770
L4540 18870
L4540 18940
L4560 19030
L4590 19080
L4640 19130
L4710 19150
L4750 19150
L4830 19130
L4850 19100
L4850 18940
L4750 18940
" />
<path d="M5060 19150
L5060 18650
L5350 19150
L5350 18650
" />
<path d="M5590 19150
L5590 18650
L5710 18650
L5780 18680
L5830 18720
L5850 18770
L5870 18870
L5870 18940
L5850 19030
L5830 19080
L5780 19130
L5710 19150
L5590 19150
" />
</g>
<g style="fill:#840000; fill-opacity:0.0; 
stroke:#840000; stroke-width:60; stroke-opacity:1; 
stroke-linecap:round; stroke-linejoin:round;">
<text x="3220" y="18830"
textLength="1010" font-size="660" lengthAdjust="spacingAndGlyphs"
text-anchor="middle" opacity="0">14</text>
<path d="M3120 18800
L2830 18800
" />
<path d="M2980 18800
L2980 18300
L2930 18370
L2880 18420
L2830 18440
" />
<path d="M3550 18470
L3550 18800
" />
<path d="M3430 18280
L3310 18630
L3620 18630
" />
<path d="M4220 19930
L2220 19930
" />
</g>
<g style="fill:#008484; fill-opacity:0.0; 
stroke:#008484; stroke-width:60; stroke-opacity:1; 
stroke-linecap:round; stroke-linejoin:round;">
<text x="4420" y="20180"
textLength="1770" font-size="660" lengthAdjust="spacingAndGlyphs"
text-anchor="start" opacity="0">IO13</text>
<path d="M4560 20150
L4560 19650
" />
<path d="M4900 19650
L4990 19650
L5040 19680
L5090 19720
L5110 19820
L5110 19980
L5090 20080
L5040 20130
L4990 20150
L4900 20150
L4850 20130
L4800 20080
L4780 19980
L4780 19820
L4800 19720
L4850 19680
L4900 19650
" />
<path d="M5590 20150
L5300 20150
" />
<path d="M5450 20150
L5450 19650
L5400 19720
L5350 19770
L5300 19790
" />
<path d="M5750 19650
L6060 19650
L5900 19840
L5970 19840
L6020 19870
L6040 19890
L6060 19940
L6060 20060
L6040 20100
L6020 20130
L5970 20150
L5830 20150
L5780 20130
L5750 20100
" />
</g>
<g style="fill:#840000; fill-opacity:0.0; 
stroke:#840000; stroke-width:60; stroke-opacity:1; 
stroke-linecap:round; stroke-linejoin:round;">
<text x="3220" y="19830"
textLength="1010" font-size="660" lengthAdjust="spacingAndGlyphs"
text-anchor="middle" opacity="0">15</text>
<path d="M3120 19800
L2830 19800
" />
<path d="M2980 19800
L2980 19300
L2930 19370
L2880 19420
L2830 19440
" />
<path d="M3570 19300
L3330 19300
L3310 19540
L3330 19520
L3380 19490
L3500 19490
L3550 19520
L3570 19540
L3600 19590
L3600 19710
L3570 19750
L3550 19780
L3500 19800
L3380 19800
L3330 19780
L3310 19750
" />
<path d="M4220 20930
L2220 20930
" />
<path d="M2070 20780
L2370 21080
" />
<path d="M2370 20780
L2070 21080
" />
</g>
<g style="fill:#008484; fill-opacity:0.0; 
stroke:#008484; stroke-width:60; stroke-opacity:1; 
stroke-linecap:round; stroke-linejoin:round;">
<text x="4420" y="21180"
textLength="3130" font-size="660" lengthAdjust="spacingAndGlyphs"
text-anchor="start" opacity="0">SD2_IO9</text>
<path d="M4540 21130
L4610 21150
L4730 21150
L4780 21130
L4800 21100
L4830 21060
L4830 21010
L4800 20960
L4780 20940
L4730 20910
L4640 20890
L4590 20870
L4560 20840
L4540 20790
L4540 20750
L4560 20700
L4590 20680
L4640 20650
L4750 20650
L4830 20680
" />
<path d="M5040 21150
L5040 20650
L5160 20650
L5230 20680
L5280 20720
L5300 20770
L5330 20870
L5330 20940
L5300 21030
L5280 21080
L5230 21130
L5160 21150
L5040 21150
" />
<path d="M5520 20700
L5540 20680
L5590 20650
L5710 20650
L5750 20680
L5780 20700
L5800 20750
L5800 20790
L5780 20870
L5490 21150
L5800 21150
" />
<path d="M5900 21200
L6280 21200
" />
<path d="M6400 21150
L6400 20650
" />
<path d="M6730 20650
L6830 20650
L6870 20680
L6920 20720
L6950 20820
L6950 20980
L6920 21080
L6870 21130
L6830 21150
L6730 21150
L6680 21130
L6640 21080
L6610 20980
L6610 20820
L6640 20720
L6680 20680
L6730 20650
" />
<path d="M7180 21150
L7280 21150
L7330 21130
L7350 21100
L7400 21030
L7420 20940
L7420 20750
L7400 20700
L7370 20680
L7330 20650
L7230 20650
L7180 20680
L7160 20700
L7140 20750
L7140 20870
L7160 20910
L7180 20940
L7230 20960
L7330 20960
L7370 20940
L7400 20910
L7420 20870
" />
</g>
<g style="fill:#840000; fill-opacity:0.0; 
stroke:#840000; stroke-width:60; stroke-opacity:1; 
stroke-linecap:round; stroke-linejoin:round;">
<text x="3220" y="20830"
textLength="1010" font-size="660" lengthAdjust="spacingAndGlyphs"
text-anchor="middle" opacity="0">16</text>
<path d="M3120 20800
L2830 20800
" />
<path d="M2980 20800
L2980 20300
L2930 20370
L2880 20420
L2830 20440
" />
<path d="M3550 20300
L3450 20300
L3410 20330
L3380 20350
L3330 20420
L3310 20520
L3310 20710
L3330 20750
L3360 20780
L3410 20800
L3500 20800
L3550 20780
L3570 20750
L3600 20710
L3600 20590
L3570 20540
L3550 20520
L3500 20490
L3410 20490
L3360 20520
L3330 20540
L3310 20590
" />
<path d="M4220 21930
L2220 21930
" />
<path d="M2070 21780
L2370 22080
" />
<path d="M2370 21780
L2070 22080
" />
</g>
<g style="fill:#008484; fill-opacity:0.0; 
stroke:#008484; stroke-width:60; stroke-opacity:1; 
stroke-linecap:round; stroke-linejoin:round;">
<text x="4420" y="22180"
textLength="3610" font-size="660" lengthAdjust="spacingAndGlyphs"
text-anchor="start" opacity="0">SD3_IO10</text>
<path d="M4540 22130
L4610 22150
L4730 22150
L4780 22130
L4800 22100
L4830 22060
L4830 22010
L4800 21960
L4780 21940
L4730 21910
L4640 21890
L4590 21870
L4560 21840
L4540 21790
L4540 21750
L4560 21700
L4590 21680
L4640 21650
L4750 21650
L4830 21680
" />
<path d="M5040 22150
L5040 21650
L5160 21650
L5230 21680
L5280 21720
L5300 21770
L5330 21870
L5330 21940
L5300 22030
L5280 22080
L5230 22130
L5160 22150
L5040 22150
" />
<path d="M5490 21650
L5800 21650
L5640 21840
L5710 21840
L5750 21870
L5780 21890
L5800 21940
L5800 22060
L5780 22100
L5750 22130
L5710 22150
L5560 22150
L5520 22130
L5490 22100
" />
<path d="M5900 22200
L6280 22200
" />
<path d="M6400 22150
L6400 21650
" />
<path d="M6730 21650
L6830 21650
L6870 21680
L6920 21720
L6950 21820
L6950 21980
L6920 22080
L6870 22130
L6830 22150
L6730 22150
L6680 22130
L6640 22080
L6610 21980
L6610 21820
L6640 21720
L6680 21680
L6730 21650
" />
<path d="M7420 22150
L7140 22150
" />
<path d="M7280 22150
L7280 21650
L7230 21720
L7180 21770
L7140 21790
" />
<path d="M7730 21650
L7780 21650
L7830 21680
L7850 21700
L7870 21750
L7900 21840
L7900 21960
L7870 22060
L7850 22100
L7830 22130
L7780 22150
L7730 22150
L7680 22130
L7660 22100
L7640 22060
L7610 21960
L7610 21840
L7640 21750
L7660 21700
L7680 21680
L7730 21650
" />
</g>
<g style="fill:#840000; fill-opacity:0.0; 
stroke:#840000; stroke-width:60; stroke-opacity:1; 
stroke-linecap:round; stroke-linejoin:round;">
<text x="3220" y="21830"
textLength="1010" font-size="660" lengthAdjust="spacingAndGlyphs"
text-anchor="middle" opacity="0">17</text>
<path d="M3120 21800
L2830 21800
" />
<path d="M2980 21800
L2980 21300
L2930 21370
L2880 21420
L2830 21440
" />
<path d="M3290 21300
L3620 21300
L3410 21800
" />
<path d="M4220 22930
L2220 22930
" />
<path d="M2070 22780
L2370 23080
" />
<path d="M2370 22780
L2070 23080
" />
</g>
<g style="fill:#008484; fill-opacity:0.0; 
stroke:#008484; stroke-width:60; stroke-opacity:1; 
stroke-linecap:round; stroke-linejoin:round;">
<text x="4420" y="23180"
textLength="3730" font-size="660" lengthAdjust="spacingAndGlyphs"
text-anchor="start" opacity="0">CMD_IO11</text>
<path d="M4850 23100
L4830 23130
L4750 23150
L4710 23150
L4640 23130
L4590 23080
L4560 23030
L4540 22940
L4540 22870
L4560 22770
L4590 22720
L4640 22680
L4710 22650
L4750 22650
L4830 22680
L4850 22700
" />
<path d="M5060 23150
L5060 22650
L5230 23010
L5400 22650
L5400 23150
" />
<path d="M5640 23150
L5640 22650
L5750 22650
L5830 22680
L5870 22720
L5900 22770
L5920 22870
L5920 22940
L5900 23030
L5870 23080
L5830 23130
L5750 23150
L5640 23150
" />
<path d="M6020 23200
L6400 23200
" />
<path d="M6520 23150
L6520 22650
" />
<path d="M6850 22650
L6950 22650
L6990 22680
L7040 22720
L7060 22820
L7060 22980
L7040 23080
L6990 23130
L6950 23150
L6850 23150
L6800 23130
L6750 23080
L6730 22980
L6730 22820
L6750 22720
L6800 22680
L6850 22650
" />
<path d="M7540 23150
L7250 23150
" />
<path d="M7400 23150
L7400 22650
L7350 22720
L7300 22770
L7250 22790
" />
<path d="M8020 23150
L7730 23150
" />
<path d="M7870 23150
L7870 22650
L7830 22720
L7780 22770
L7730 22790
" />
</g>
<g style="fill:#840000; fill-opacity:0.0; 
stroke:#840000; stroke-width:60; stroke-opacity:1; 
stroke-linecap:round; stroke-linejoin:round;">
<text x="3220" y="22830"
textLength="1010" font-size="660" lengthAdjust="spacingAndGlyphs"
text-anchor="middle" opacity="0">18</text>
<path d="M3120 22800
L2830 22800
" />
<path d="M2980 22800
L2980 22300
L2930 22370
L2880 22420
L2830 22440
" />
<path d="M3410 22520
L3360 22490
L3330 22470
L3310 22420
L3310 22400
L3330 22350
L3360 22330
L3410 22300
L3500 22300
L3550 22330
L3570 22350
L3600 22400
L3600 22420
L3570 22470
L3550 22490
L3500 22520
L3410 22520
L3360 22540
L3330 22560
L3310 22610
L3310 22710
L3330 22750
L3360 22780
L3410 22800
L3500 22800
L3550 22780
L3570 22750
L3600 22710
L3600 22610
L3570 22560
L3550 22540
L3500 22520
" />
<path d="M4220 23930
L2220 23930
" />
</g>
<g style="fill:#008484; fill-opacity:0.0; 
stroke:#008484; stroke-width:60; stroke-opacity:1; 
stroke-linecap:round; stroke-linejoin:round;">
<text x="4420" y="24180"
textLength="960" font-size="660" lengthAdjust="spacingAndGlyphs"
text-anchor="start" opacity="0">5V</text>
<path d="M4800 23650
L4560 23650
L4540 23890
L4560 23870
L4610 23840
L4730 23840
L4780 23870
L4800 23890
L4830 23940
L4830 24060
L4800 24100
L4780 24130
L4730 24150
L4610 24150
L4560 24130
L4540 24100
" />
<path d="M4970 23650
L5140 24150
L5300 23650
" />
</g>
<g style="fill:#840000; fill-opacity:0.0; 
stroke:#840000; stroke-width:60; stroke-opacity:1; 
stroke-linecap:round; stroke-linejoin:round;">
<text x="3220" y="23830"
textLength="1010" font-size="660" lengthAdjust="spacingAndGlyphs"
text-anchor="middle" opacity="0">19</text>
<path d="M3120 23800
L2830 23800
" />
<path d="M2980 23800
L2980 23300
L2930 23370
L2880 23420
L2830 23440
" />
<path d="M3360 23800
L3450 23800
L3500 23780
L3520 23750
L3570 23680
L3600 23590
L3600 23400
L3570 23350
L3550 23330
L3500 23300
L3410 23300
L3360 23330
L3330 23350
L3310 23400
L3310 23520
L3330 23560
L3360 23590
L3410 23610
L3500 23610
L3550 23590
L3570 23560
L3600 23520
" />
<path d="M4220 6930
L2220 6930
" />
</g>
<g style="fill:#008484; fill-opacity:0.0; 
stroke:#008484; stroke-width:60; stroke-opacity:1; 
stroke-linecap:round; stroke-linejoin:round;">
<text x="4420" y="7180"
textLength="1040" font-size="660" lengthAdjust="spacingAndGlyphs"
text-anchor="start" opacity="0">EN</text>
<path d="M4560 6890
L4730 6890
" />
<path d="M4800 7150
L4560 7150
L4560 6650
L4800 6650
" />
<path d="M5020 7150
L5020 6650
L5300 7150
L5300 6650
" />
</g>
<g style="fill:#840000; fill-opacity:0.0; 
stroke:#840000; stroke-width:60; stroke-opacity:1; 
stroke-linecap:round; stroke-linejoin:round;">
<text x="3220" y="6830"
textLength="540" font-size="660" lengthAdjust="spacingAndGlyphs"
text-anchor="middle" opacity="0">2</text>
<path d="M3070 6350
L3100 6330
L3140 6300
L3260 6300
L3310 6330
L3330 6350
L3360 6400
L3360 6440
L3330 6520
L3050 6800
L3360 6800
" />
<path d="M17720 23930
L19720 23930
" />
<path d="M19570 23780
L19870 24080
" />
<path d="M19870 23780
L19570 24080
" />
</g>
<g style="fill:#008484; fill-opacity:0.0; 
stroke:#008484; stroke-width:60; stroke-opacity:1; 
stroke-linecap:round; stroke-linejoin:round;">
<text x="17520" y="24180"
textLength="3080" font-size="660" lengthAdjust="spacingAndGlyphs"
text-anchor="end" opacity="0">CLK_IO6</text>
<path d="M14870 24100
L14840 24130
L14770 24150
L14720 24150
L14650 24130
L14600 24080
L14580 24030
L14560 23940
L14560 23870
L14580 23770
L14600 23720
L14650 23680
L14720 23650
L14770 23650
L14840 23680
L14870 23700
" />
<path d="M15320 24150
L15080 24150
L15080 23650
" />
<path d="M15490 24150
L15490 23650
" />
<path d="M15770 24150
L15560 23870
" />
<path d="M15770 23650
L15490 23940
" />
<path d="M15870 24200
L16250 24200
" />
<path d="M16370 24150
L16370 23650
" />
<path d="M16700 23650
L16790 23650
L16840 23680
L16890 23720
L16910 23820
L16910 23980
L16890 24080
L16840 24130
L16790 24150
L16700 24150
L16650 24130
L16600 24080
L16580 23980
L16580 23820
L16600 23720
L16650 23680
L16700 23650
" />
<path d="M17340 23650
L17250 23650
L17200 23680
L17180 23700
L17130 23770
L17100 23870
L17100 24060
L17130 24100
L17150 24130
L17200 24150
L17290 24150
L17340 24130
L17370 24100
L17390 24060
L17390 23940
L17370 23890
L17340 23870
L17290 23840
L17200 23840
L17150 23870
L17130 23890
L17100 23940
" />
</g>
<g style="fill:#840000; fill-opacity:0.0; 
stroke:#840000; stroke-width:60; stroke-opacity:1; 
stroke-linecap:round; stroke-linejoin:round;">
<text x="18720" y="23830"
textLength="1010" font-size="660" lengthAdjust="spacingAndGlyphs"
text-anchor="middle" opacity="0">20</text>
<path d="M18330 23350
L18360 23330
L18410 23300
L18520 23300
L18570 23330
L18600 23350
L18620 23400
L18620 23440
L18600 23520
L18310 23800
L18620 23800
" />
<path d="M18930 23300
L18980 23300
L19020 23330
L19050 23350
L19070 23400
L19100 23490
L19100 23610
L19070 23710
L19050 23750
L19020 23780
L18980 23800
L18930 23800
L18880 23780
L18860 23750
L18830 23710
L18810 23610
L18810 23490
L18830 23400
L18860 23350
L18880 23330
L18930 23300
" />
<path d="M17720 22930
L19720 22930
" />
<path d="M19570 22780
L19870 23080
" />
<path d="M19870 22780
L19570 23080
" />
</g>
<g style="fill:#008484; fill-opacity:0.0; 
stroke:#008484; stroke-width:60; stroke-opacity:1; 
stroke-linecap:round; stroke-linejoin:round;">
<text x="17520" y="23180"
textLength="3130" font-size="660" lengthAdjust="spacingAndGlyphs"
text-anchor="end" opacity="0">SD0_IO7</text>
<path d="M14510 23130
L14580 23150
L14700 23150
L14750 23130
L14770 23100
L14790 23060
L14790 23010
L14770 22960
L14750 22940
L14700 22910
L14600 22890
L14560 22870
L14530 22840
L14510 22790
L14510 22750
L14530 22700
L14560 22680
L14600 22650
L14720 22650
L14790 22680
" />
<path d="M15010 23150
L15010 22650
L15130 22650
L15200 22680
L15250 22720
L15270 22770
L15290 22870
L15290 22940
L15270 23030
L15250 23080
L15200 23130
L15130 23150
L15010 23150
" />
<path d="M15600 22650
L15650 22650
L15700 22680
L15720 22700
L15750 22750
L15770 22840
L15770 22960
L15750 23060
L15720 23100
L15700 23130
L15650 23150
L15600 23150
L15560 23130
L15530 23100
L15510 23060
L15490 22960
L15490 22840
L15510 22750
L15530 22700
L15560 22680
L15600 22650
" />
<path d="M15870 23200
L16250 23200
" />
<path d="M16370 23150
L16370 22650
" />
<path d="M16700 22650
L16790 22650
L16840 22680
L16890 22720
L16910 22820
L16910 22980
L16890 23080
L16840 23130
L16790 23150
L16700 23150
L16650 23130
L16600 23080
L16580 22980
L16580 22820
L16600 22720
L16650 22680
L16700 22650
" />
<path d="M17080 22650
L17410 22650
L17200 23150
" />
</g>
<g style="fill:#840000; fill-opacity:0.0; 
stroke:#840000; stroke-width:60; stroke-opacity:1; 
stroke-linecap:round; stroke-linejoin:round;">
<text x="18720" y="22830"
textLength="1010" font-size="660" lengthAdjust="spacingAndGlyphs"
text-anchor="middle" opacity="0">21</text>
<path d="M18330 22350
L18360 22330
L18410 22300
L18520 22300
L18570 22330
L18600 22350
L18620 22400
L18620 22440
L18600 22520
L18310 22800
L18620 22800
" />
<path d="M19100 22800
L18810 22800
" />
<path d="M18950 22800
L18950 22300
L18910 22370
L18860 22420
L18810 22440
" />
<path d="M17720 21930
L19720 21930
" />
<path d="M19570 21780
L19870 22080
" />
<path d="M19870 21780
L19570 22080
" />
</g>
<g style="fill:#008484; fill-opacity:0.0; 
stroke:#008484; stroke-width:60; stroke-opacity:1; 
stroke-linecap:round; stroke-linejoin:round;">
<text x="17520" y="22180"
textLength="3130" font-size="660" lengthAdjust="spacingAndGlyphs"
text-anchor="end" opacity="0">SD1_IO8</text>
<path d="M14510 22130
L14580 22150
L14700 22150
L14750 22130
L14770 22100
L14790 22060
L14790 22010
L14770 21960
L14750 21940
L14700 21910
L14600 21890
L14560 21870
L14530 21840
L14510 21790
L14510 21750
L14530 21700
L14560 21680
L14600 21650
L14720 21650
L14790 21680
" />
<path d="M15010 22150
L15010 21650
L15130 21650
L15200 21680
L15250 21720
L15270 21770
L15290 21870
L15290 21940
L15270 22030
L15250 22080
L15200 22130
L15130 22150
L15010 22150
" />
<path d="M15770 22150
L15490 22150
" />
<path d="M15630 22150
L15630 21650
L15580 21720
L15530 21770
L15490 21790
" />
<path d="M15870 22200
L16250 22200
" />
<path d="M16370 22150
L16370 21650
" />
<path d="M16700 21650
L16790 21650
L16840 21680
L16890 21720
L16910 21820
L16910 21980
L16890 22080
L16840 22130
L16790 22150
L16700 22150
L16650 22130
L16600 22080
L16580 21980
L16580 21820
L16600 21720
L16650 21680
L16700 21650
" />
<path d="M17200 21870
L17150 21840
L17130 21820
L17100 21770
L17100 21750
L17130 21700
L17150 21680
L17200 21650
L17290 21650
L17340 21680
L17370 21700
L17390 21750
L17390 21770
L17370 21820
L17340 21840
L17290 21870
L17200 21870
L17150 21890
L17130 21910
L17100 21960
L17100 22060
L17130 22100
L17150 22130
L17200 22150
L17290 22150
L17340 22130
L17370 22100
L17390 22060
L17390 21960
L17370 21910
L17340 21890
L17290 21870
" />
</g>
<g style="fill:#840000; fill-opacity:0.0; 
stroke:#840000; stroke-width:60; stroke-opacity:1; 
stroke-linecap:round; stroke-linejoin:round;">
<text x="18720" y="21830"
textLength="1010" font-size="660" lengthAdjust="spacingAndGlyphs"
text-anchor="middle" opacity="0">22</text>
<path d="M18330 21350
L18360 21330
L18410 21300
L18520 21300
L18570 21330
L18600 21350
L18620 21400
L18620 21440
L18600 21520
L18310 21800
L18620 21800
" />
<path d="M18810 21350
L18830 21330
L18880 21300
L19000 21300
L19050 21330
L19070 21350
L19100 21400
L19100 21440
L19070 21520
L18790 21800
L19100 21800
" />
<path d="M17720 20930
L19720 20930
" />
</g>
<g style="fill:#008484; fill-opacity:0.0; 
stroke:#008484; stroke-width:60; stroke-opacity:1; 
stroke-linecap:round; stroke-linejoin:round;">
<text x="17520" y="21180"
textLength="1770" font-size="660" lengthAdjust="spacingAndGlyphs"
text-anchor="end" opacity="0">IO15</text>
<path d="M15890 21150
L15890 20650
" />
<path d="M16220 20650
L16320 20650
L16370 20680
L16410 20720
L16440 20820
L16440 20980
L16410 21080
L16370 21130
L16320 21150
L16220 21150
L16180 21130
L16130 21080
L16100 20980
L16100 20820
L16130 20720
L16180 20680
L16220 20650
" />
<path d="M16910 21150
L16630 21150
" />
<path d="M16770 21150
L16770 20650
L16720 20720
L16680 20770
L16630 20790
" />
<path d="M17370 20650
L17130 20650
L17100 20890
L17130 20870
L17180 20840
L17290 20840
L17340 20870
L17370 20890
L17390 20940
L17390 21060
L17370 21100
L17340 21130
L17290 21150
L17180 21150
L17130 21130
L17100 21100
" />
</g>
<g style="fill:#840000; fill-opacity:0.0; 
stroke:#840000; stroke-width:60; stroke-opacity:1; 
stroke-linecap:round; stroke-linejoin:round;">
<text x="18720" y="20830"
textLength="1010" font-size="660" lengthAdjust="spacingAndGlyphs"
text-anchor="middle" opacity="0">23</text>
<path d="M18330 20350
L18360 20330
L18410 20300
L18520 20300
L18570 20330
L18600 20350
L18620 20400
L18620 20440
L18600 20520
L18310 20800
L18620 20800
" />
<path d="M18790 20300
L19100 20300
L18930 20490
L19000 20490
L19050 20520
L19070 20540
L19100 20590
L19100 20710
L19070 20750
L19050 20780
L19000 20800
L18860 20800
L18810 20780
L18790 20750
" />
<path d="M17720 19930
L19720 19930
" />
</g>
<g style="fill:#008484; fill-opacity:0.0; 
stroke:#008484; stroke-width:60; stroke-opacity:1; 
stroke-linecap:round; stroke-linejoin:round;">
<text x="17520" y="20180"
textLength="1300" font-size="660" lengthAdjust="spacingAndGlyphs"
text-anchor="end" opacity="0">IO2</text>
<path d="M16370 20150
L16370 19650
" />
<path d="M16700 19650
L16790 19650
L16840 19680
L16890 19720
L16910 19820
L16910 19980
L16890 20080
L16840 20130
L16790 20150
L16700 20150
L16650 20130
L16600 20080
L16580 19980
L16580 19820
L16600 19720
L16650 19680
L16700 19650
" />
<path d="M17100 19700
L17130 19680
L17180 19650
L17290 19650
L17340 19680
L17370 19700
L17390 19750
L17390 19790
L17370 19870
L17080 20150
L17390 20150
" />
</g>
<g style="fill:#840000; fill-opacity:0.0; 
stroke:#840000; stroke-width:60; stroke-opacity:1; 
stroke-linecap:round; stroke-linejoin:round;">
<text x="18720" y="19830"
textLength="1010" font-size="660" lengthAdjust="spacingAndGlyphs"
text-anchor="middle" opacity="0">24</text>
<path d="M18330 19350
L18360 19330
L18410 19300
L18520 19300
L18570 19330
L18600 19350
L18620 19400
L18620 19440
L18600 19520
L18310 19800
L18620 19800
" />
<path d="M19050 19470
L19050 19800
" />
<path d="M18930 19280
L18810 19630
L19120 19630
" />
<path d="M17720 18930
L19720 18930
" />
</g>
<g style="fill:#008484; fill-opacity:0.0; 
stroke:#008484; stroke-width:60; stroke-opacity:1; 
stroke-linecap:round; stroke-linejoin:round;">
<text x="17520" y="19180"
textLength="1300" font-size="660" lengthAdjust="spacingAndGlyphs"
text-anchor="end" opacity="0">IO0</text>
<path d="M16370 19150
L16370 18650
" />
<path d="M16700 18650
L16790 18650
L16840 18680
L16890 18720
L16910 18820
L16910 18980
L16890 19080
L16840 19130
L16790 19150
L16700 19150
L16650 19130
L16600 19080
L16580 18980
L16580 18820
L16600 18720
L16650 18680
L16700 18650
" />
<path d="M17220 18650
L17270 18650
L17320 18680
L17340 18700
L17370 18750
L17390 18840
L17390 18960
L17370 19060
L17340 19100
L17320 19130
L17270 19150
L17220 19150
L17180 19130
L17150 19100
L17130 19060
L17100 18960
L17100 18840
L17130 18750
L17150 18700
L17180 18680
L17220 18650
" />
</g>
<g style="fill:#840000; fill-opacity:0.0; 
stroke:#840000; stroke-width:60; stroke-opacity:1; 
stroke-linecap:round; stroke-linejoin:round;">
<text x="18720" y="18830"
textLength="1010" font-size="660" lengthAdjust="spacingAndGlyphs"
text-anchor="middle" opacity="0">25</text>
<path d="M18330 18350
L18360 18330
L18410 18300
L18520 18300
L18570 18330
L18600 18350
L18620 18400
L18620 18440
L18600 18520
L18310 18800
L18620 18800
" />
<path d="M19070 18300
L18830 18300
L18810 18540
L18830 18520
L18880 18490
L19000 18490
L19050 18520
L19070 18540
L19100 18590
L19100 18710
L19070 18750
L19050 18780
L19000 18800
L18880 18800
L18830 18780
L18810 18750
" />
<path d="M17720 17930
L19720 17930
" />
</g>
<g style="fill:#008484; fill-opacity:0.0; 
stroke:#008484; stroke-width:60; stroke-opacity:1; 
stroke-linecap:round; stroke-linejoin:round;">
<text x="17520" y="18180"
textLength="1300" font-size="660" lengthAdjust="spacingAndGlyphs"
text-anchor="end" opacity="0">IO4</text>
<path d="M16370 18150
L16370 17650
" />
<path d="M16700 17650
L16790 17650
L16840 17680
L16890 17720
L16910 17820
L16910 17980
L16890 18080
L16840 18130
L16790 18150
L16700 18150
L16650 18130
L16600 18080
L16580 17980
L16580 17820
L16600 17720
L16650 17680
L16700 17650
" />
<path d="M17340 17820
L17340 18150
" />
<path d="M17220 17630
L17100 17980
L17410 17980
" />
</g>
<g style="fill:#840000; fill-opacity:0.0; 
stroke:#840000; stroke-width:60; stroke-opacity:1; 
stroke-linecap:round; stroke-linejoin:round;">
<text x="18720" y="17830"
textLength="1010" font-size="660" lengthAdjust="spacingAndGlyphs"
text-anchor="middle" opacity="0">26</text>
<path d="M18330 17350
L18360 17330
L18410 17300
L18520 17300
L18570 17330
L18600 17350
L18620 17400
L18620 17440
L18600 17520
L18310 17800
L18620 17800
" />
<path d="M19050 17300
L18950 17300
L18910 17330
L18880 17350
L18830 17420
L18810 17520
L18810 17710
L18830 17750
L18860 17780
L18910 17800
L19000 17800
L19050 17780
L19070 17750
L19100 17710
L19100 17590
L19070 17540
L19050 17520
L19000 17490
L18910 17490
L18860 17520
L18830 17540
L18810 17590
" />
<path d="M17720 16930
L19720 16930
" />
<path d="M19570 16780
L19870 17080
" />
<path d="M19870 16780
L19570 17080
" />
</g>
<g style="fill:#008484; fill-opacity:0.0; 
stroke:#008484; stroke-width:60; stroke-opacity:1; 
stroke-linecap:round; stroke-linejoin:round;">
<text x="17520" y="17180"
textLength="1770" font-size="660" lengthAdjust="spacingAndGlyphs"
text-anchor="end" opacity="0">IO16</text>
<path d="M15890 17150
L15890 16650
" />
<path d="M16220 16650
L16320 16650
L16370 16680
L16410 16720
L16440 16820
L16440 16980
L16410 17080
L16370 17130
L16320 17150
L16220 17150
L16180 17130
L16130 17080
L16100 16980
L16100 16820
L16130 16720
L16180 16680
L16220 16650
" />
<path d="M16910 17150
L16630 17150
" />
<path d="M16770 17150
L16770 16650
L16720 16720
L16680 16770
L16630 16790
" />
<path d="M17340 16650
L17250 16650
L17200 16680
L17180 16700
L17130 16770
L17100 16870
L17100 17060
L17130 17100
L17150 17130
L17200 17150
L17290 17150
L17340 17130
L17370 17100
L17390 17060
L17390 16940
L17370 16890
L17340 16870
L17290 16840
L17200 16840
L17150 16870
L17130 16890
L17100 16940
" />
</g>
<g style="fill:#840000; fill-opacity:0.0; 
stroke:#840000; stroke-width:60; stroke-opacity:1; 
stroke-linecap:round; stroke-linejoin:round;">
<text x="18720" y="16830"
textLength="1010" font-size="660" lengthAdjust="spacingAndGlyphs"
text-anchor="middle" opacity="0">27</text>
<path d="M18330 16350
L18360 16330
L18410 16300
L18520 16300
L18570 16330
L18600 16350
L18620 16400
L18620 16440
L18600 16520
L18310 16800
L18620 16800
" />
<path d="M18790 16300
L19120 16300
L18910 16800
" />
<path d="M17720 15930
L19720 15930
" />
<path d="M19570 15780
L19870 16080
" />
<path d="M19870 15780
L19570 16080
" />
</g>
<g style="fill:#008484; fill-opacity:0.0; 
stroke:#008484; stroke-width:60; stroke-opacity:1; 
stroke-linecap:round; stroke-linejoin:round;">
<text x="17520" y="16180"
textLength="1770" font-size="660" lengthAdjust="spacingAndGlyphs"
text-anchor="end" opacity="0">IO17</text>
<path d="M15890 16150
L15890 15650
" />
<path d="M16220 15650
L16320 15650
L16370 15680
L16410 15720
L16440 15820
L16440 15980
L16410 16080
L16370 16130
L16320 16150
L16220 16150
L16180 16130
L16130 16080
L16100 15980
L16100 15820
L16130 15720
L16180 15680
L16220 15650
" />
<path d="M16910 16150
L16630 16150
" />
<path d="M16770 16150
L16770 15650
L16720 15720
L16680 15770
L16630 15790
" />
<path d="M17080 15650
L17410 15650
L17200 16150
" />
</g>
<g style="fill:#840000; fill-opacity:0.0; 
stroke:#840000; stroke-width:60; stroke-opacity:1; 
stroke-linecap:round; stroke-linejoin:round;">
<text x="18720" y="15830"
textLength="1010" font-size="660" lengthAdjust="spacingAndGlyphs"
text-anchor="middle" opacity="0">28</text>
<path d="M18330 15350
L18360 15330
L18410 15300
L18520 15300
L18570 15330
L18600 15350
L18620 15400
L18620 15440
L18600 15520
L18310 15800
L18620 15800
" />
<path d="M18910 15520
L18860 15490
L18830 15470
L18810 15420
L18810 15400
L18830 15350
L18860 15330
L18910 15300
L19000 15300
L19050 15330
L19070 15350
L19100 15400
L19100 15420
L19070 15470
L19050 15490
L19000 15520
L18910 15520
L18860 15540
L18830 15560
L18810 15610
L18810 15710
L18830 15750
L18860 15780
L18910 15800
L19000 15800
L19050 15780
L19070 15750
L19100 15710
L19100 15610
L19070 15560
L19050 15540
L19000 15520
" />
<path d="M17720 14930
L19720 14930
" />
</g>
<g style="fill:#008484; fill-opacity:0.0; 
stroke:#008484; stroke-width:60; stroke-opacity:1; 
stroke-linecap:round; stroke-linejoin:round;">
<text x="17520" y="15180"
textLength="1300" font-size="660" lengthAdjust="spacingAndGlyphs"
text-anchor="end" opacity="0">IO5</text>
<path d="M16370 15150
L16370 14650
" />
<path d="M16700 14650
L16790 14650
L16840 14680
L16890 14720
L16910 14820
L16910 14980
L16890 15080
L16840 15130
L16790 15150
L16700 15150
L16650 15130
L16600 15080
L16580 14980
L16580 14820
L16600 14720
L16650 14680
L16700 14650
" />
<path d="M17370 14650
L17130 14650
L17100 14890
L17130 14870
L17180 14840
L17290 14840
L17340 14870
L17370 14890
L17390 14940
L17390 15060
L17370 15100
L17340 15130
L17290 15150
L17180 15150
L17130 15130
L17100 15100
" />
</g>
<g style="fill:#840000; fill-opacity:0.0; 
stroke:#840000; stroke-width:60; stroke-opacity:1; 
stroke-linecap:round; stroke-linejoin:round;">
<text x="18720" y="14830"
textLength="1010" font-size="660" lengthAdjust="spacingAndGlyphs"
text-anchor="middle" opacity="0">29</text>
<path d="M18330 14350
L18360 14330
L18410 14300
L18520 14300
L18570 14330
L18600 14350
L18620 14400
L18620 14440
L18600 14520
L18310 14800
L18620 14800
" />
<path d="M18860 14800
L18950 14800
L19000 14780
L19020 14750
L19070 14680
L19100 14590
L19100 14400
L19070 14350
L19050 14330
L19000 14300
L18910 14300
L18860 14330
L18830 14350
L18810 14400
L18810 14520
L18830 14560
L18860 14590
L18910 14610
L19000 14610
L19050 14590
L19070 14560
L19100 14520
" />
<path d="M4220 7930
L2220 7930
" />
</g>
<g style="fill:#008484; fill-opacity:0.0; 
stroke:#008484; stroke-width:60; stroke-opacity:1; 
stroke-linecap:round; stroke-linejoin:round;">
<text x="4420" y="8180"
textLength="990" font-size="660" lengthAdjust="spacingAndGlyphs"
text-anchor="start" opacity="0">VP</text>
<path d="M4490 7650
L4660 8150
L4830 7650
" />
<path d="M4990 8150
L4990 7650
L5180 7650
L5230 7680
L5250 7700
L5280 7750
L5280 7820
L5250 7870
L5230 7890
L5180 7910
L4990 7910
" />
</g>
<g style="fill:#840000; fill-opacity:0.0; 
stroke:#840000; stroke-width:60; stroke-opacity:1; 
stroke-linecap:round; stroke-linejoin:round;">
<text x="3220" y="7830"
textLength="540" font-size="660" lengthAdjust="spacingAndGlyphs"
text-anchor="middle" opacity="0">3</text>
<path d="M3050 7300
L3360 7300
L3190 7490
L3260 7490
L3310 7520
L3330 7540
L3360 7590
L3360 7710
L3330 7750
L3310 7780
L3260 7800
L3120 7800
L3070 7780
L3050 7750
" />
<path d="M17720 13930
L19720 13930
" />
</g>
<g style="fill:#008484; fill-opacity:0.0; 
stroke:#008484; stroke-width:60; stroke-opacity:1; 
stroke-linecap:round; stroke-linejoin:round;">
<text x="17520" y="14180"
textLength="1770" font-size="660" lengthAdjust="spacingAndGlyphs"
text-anchor="end" opacity="0">IO18</text>
<path d="M15890 14150
L15890 13650
" />
<path d="M16220 13650
L16320 13650
L16370 13680
L16410 13720
L16440 13820
L16440 13980
L16410 14080
L16370 14130
L16320 14150
L16220 14150
L16180 14130
L16130 14080
L16100 13980
L16100 13820
L16130 13720
L16180 13680
L16220 13650
" />
<path d="M16910 14150
L16630 14150
" />
<path d="M16770 14150
L16770 13650
L16720 13720
L16680 13770
L16630 13790
" />
<path d="M17200 13870
L17150 13840
L17130 13820
L17100 13770
L17100 13750
L17130 13700
L17150 13680
L17200 13650
L17290 13650
L17340 13680
L17370 13700
L17390 13750
L17390 13770
L17370 13820
L17340 13840
L17290 13870
L17200 13870
L17150 13890
L17130 13910
L17100 13960
L17100 14060
L17130 14100
L17150 14130
L17200 14150
L17290 14150
L17340 14130
L17370 14100
L17390 14060
L17390 13960
L17370 13910
L17340 13890
L17290 13870
" />
</g>
<g style="fill:#840000; fill-opacity:0.0; 
stroke:#840000; stroke-width:60; stroke-opacity:1; 
stroke-linecap:round; stroke-linejoin:round;">
<text x="18720" y="13830"
textLength="1010" font-size="660" lengthAdjust="spacingAndGlyphs"
text-anchor="middle" opacity="0">30</text>
<path d="M18310 13300
L18620 13300
L18450 13490
L18520 13490
L18570 13520
L18600 13540
L18620 13590
L18620 13710
L18600 13750
L18570 13780
L18520 13800
L18380 13800
L18330 13780
L18310 13750
" />
<path d="M18930 13300
L18980 13300
L19020 13330
L19050 13350
L19070 13400
L19100 13490
L19100 13610
L19070 13710
L19050 13750
L19020 13780
L18980 13800
L18930 13800
L18880 13780
L18860 13750
L18830 13710
L18810 13610
L18810 13490
L18830 13400
L18860 13350
L18880 13330
L18930 13300
" />
<path d="M17720 12930
L19720 12930
" />
</g>
<g style="fill:#008484; fill-opacity:0.0; 
stroke:#008484; stroke-width:60; stroke-opacity:1; 
stroke-linecap:round; stroke-linejoin:round;">
<text x="17520" y="13180"
textLength="1770" font-size="660" lengthAdjust="spacingAndGlyphs"
text-anchor="end" opacity="0">IO19</text>
<path d="M15890 13150
L15890 12650
" />
<path d="M16220 12650
L16320 12650
L16370 12680
L16410 12720
L16440 12820
L16440 12980
L16410 13080
L16370 13130
L16320 13150
L16220 13150
L16180 13130
L16130 13080
L16100 12980
L16100 12820
L16130 12720
L16180 12680
L16220 12650
" />
<path d="M16910 13150
L16630 13150
" />
<path d="M16770 13150
L16770 12650
L16720 12720
L16680 12770
L16630 12790
" />
<path d="M17150 13150
L17250 13150
L17290 13130
L17320 13100
L17370 13030
L17390 12940
L17390 12750
L17370 12700
L17340 12680
L17290 12650
L17200 12650
L17150 12680
L17130 12700
L17100 12750
L17100 12870
L17130 12910
L17150 12940
L17200 12960
L17290 12960
L17340 12940
L17370 12910
L17390 12870
" />
</g>
<g style="fill:#840000; fill-opacity:0.0; 
stroke:#840000; stroke-width:60; stroke-opacity:1; 
stroke-linecap:round; stroke-linejoin:round;">
<text x="18720" y="12830"
textLength="1010" font-size="660" lengthAdjust="spacingAndGlyphs"
text-anchor="middle" opacity="0">31</text>
<path d="M18310 12300
L18620 12300
L18450 12490
L18520 12490
L18570 12520
L18600 12540
L18620 12590
L18620 12710
L18600 12750
L18570 12780
L18520 12800
L18380 12800
L18330 12780
L18310 12750
" />
<path d="M19100 12800
L18810 12800
" />
<path d="M18950 12800
L18950 12300
L18910 12370
L18860 12420
L18810 12440
" />
<path d="M17720 11930
L19720 11930
" />
<path d="M19570 11780
L19870 12080
" />
<path d="M19870 11780
L19570 12080
" />
</g>
<g style="fill:#008484; fill-opacity:0.0; 
stroke:#008484; stroke-width:60; stroke-opacity:1; 
stroke-linecap:round; stroke-linejoin:round;">
<text x="17520" y="12180"
textLength="1580" font-size="660" lengthAdjust="spacingAndGlyphs"
text-anchor="end" opacity="0">GND</text>
<path d="M16340 11680
L16290 11650
L16220 11650
L16150 11680
L16100 11720
L16080 11770
L16060 11870
L16060 11940
L16080 12030
L16100 12080
L16150 12130
L16220 12150
L16270 12150
L16340 12130
L16370 12100
L16370 11940
L16270 11940
" />
<path d="M16580 12150
L16580 11650
L16870 12150
L16870 11650
" />
<path d="M17100 12150
L17100 11650
L17220 11650
L17290 11680
L17340 11720
L17370 11770
L17390 11870
L17390 11940
L17370 12030
L17340 12080
L17290 12130
L17220 12150
L17100 12150
" />
</g>
<g style="fill:#840000; fill-opacity:0.0; 
stroke:#840000; stroke-width:60; stroke-opacity:1; 
stroke-linecap:round; stroke-linejoin:round;">
<text x="18720" y="11830"
textLength="1010" font-size="660" lengthAdjust="spacingAndGlyphs"
text-anchor="middle" opacity="0">32</text>
<path d="M18310 11300
L18620 11300
L18450 11490
L18520 11490
L18570 11520
L18600 11540
L18620 11590
L18620 11710
L18600 11750
L18570 11780
L18520 11800
L18380 11800
L18330 11780
L18310 11750
" />
<path d="M18810 11350
L18830 11330
L18880 11300
L19000 11300
L19050 11330
L19070 11350
L19100 11400
L19100 11440
L19070 11520
L18790 11800
L19100 11800
" />
<path d="M17720 10930
L19720 10930
" />
</g>
<g style="fill:#008484; fill-opacity:0.0; 
stroke:#008484; stroke-width:60; stroke-opacity:1; 
stroke-linecap:round; stroke-linejoin:round;">
<text x="17520" y="11180"
textLength="1770" font-size="660" lengthAdjust="spacingAndGlyphs"
text-anchor="end" opacity="0">IO21</text>
<path d="M15890 11150
L15890 10650
" />
<path d="M16220 10650
L16320 10650
L16370 10680
L16410 10720
L16440 10820
L16440 10980
L16410 11080
L16370 11130
L16320 11150
L16220 11150
L16180 11130
L16130 11080
L16100 10980
L16100 10820
L16130 10720
L16180 10680
L16220 10650
" />
<path d="M16630 10700
L16650 10680
L16700 10650
L16820 10650
L16870 10680
L16890 10700
L16910 10750
L16910 10790
L16890 10870
L16600 11150
L16910 11150
" />
<path d="M17390 11150
L17100 11150
" />
<path d="M17250 11150
L17250 10650
L17200 10720
L17150 10770
L17100 10790
" />
</g>
<g style="fill:#840000; fill-opacity:0.0; 
stroke:#840000; stroke-width:60; stroke-opacity:1; 
stroke-linecap:round; stroke-linejoin:round;">
<text x="18720" y="10830"
textLength="1010" font-size="660" lengthAdjust="spacingAndGlyphs"
text-anchor="middle" opacity="0">33</text>
<path d="M18310 10300
L18620 10300
L18450 10490
L18520 10490
L18570 10520
L18600 10540
L18620 10590
L18620 10710
L18600 10750
L18570 10780
L18520 10800
L18380 10800
L18330 10780
L18310 10750
" />
<path d="M18790 10300
L19100 10300
L18930 10490
L19000 10490
L19050 10520
L19070 10540
L19100 10590
L19100 10710
L19070 10750
L19050 10780
L19000 10800
L18860 10800
L18810 10780
L18790 10750
" />
<path d="M17720 9930
L19720 9930
" />
</g>
<g style="fill:#008484; fill-opacity:0.0; 
stroke:#008484; stroke-width:60; stroke-opacity:1; 
stroke-linecap:round; stroke-linejoin:round;">
<text x="17520" y="10180"
textLength="2010" font-size="660" lengthAdjust="spacingAndGlyphs"
text-anchor="end" opacity="0">RXD0</text>
<path d="M15940 10150
L15770 9910
" />
<path d="M15650 10150
L15650 9650
L15840 9650
L15890 9680
L15910 9700
L15940 9750
L15940 9820
L15910 9870
L15890 9890
L15840 9910
L15650 9910
" />
<path d="M16100 9650
L16440 10150
" />
<path d="M16440 9650
L16100 10150
" />
<path d="M16630 10150
L16630 9650
L16750 9650
L16820 9680
L16870 9720
L16890 9770
L16910 9870
L16910 9940
L16890 10030
L16870 10080
L16820 10130
L16750 10150
L16630 10150
" />
<path d="M17220 9650
L17270 9650
L17320 9680
L17340 9700
L17370 9750
L17390 9840
L17390 9960
L17370 10060
L17340 10100
L17320 10130
L17270 10150
L17220 10150
L17180 10130
L17150 10100
L17130 10060
L17100 9960
L17100 9840
L17130 9750
L17150 9700
L17180 9680
L17220 9650
" />
</g>
<g style="fill:#840000; fill-opacity:0.0; 
stroke:#840000; stroke-width:60; stroke-opacity:1; 
stroke-linecap:round; stroke-linejoin:round;">
<text x="18720" y="9830"
textLength="1010" font-size="660" lengthAdjust="spacingAndGlyphs"
text-anchor="middle" opacity="0">34</text>
<path d="M18310 9300
L18620 9300
L18450 9490
L18520 9490
L18570 9520
L18600 9540
L18620 9590
L18620 9710
L18600 9750
L18570 9780
L18520 9800
L18380 9800
L18330 9780
L18310 9750
" />
<path d="M19050 9470
L19050 9800
" />
<path d="M18930 9280
L18810 9630
L19120 9630
" />
<path d="M17720 8930
L19720 8930
" />
</g>
<g style="fill:#008484; fill-opacity:0.0; 
stroke:#008484; stroke-width:60; stroke-opacity:1; 
stroke-linecap:round; stroke-linejoin:round;">
<text x="17520" y="9180"
textLength="1890" font-size="660" lengthAdjust="spacingAndGlyphs"
text-anchor="end" opacity="0">TXD0</text>
<path d="M15700 8650
L15990 8650
" />
<path d="M15840 9150
L15840 8650
" />
<path d="M16100 8650
L16440 9150
" />
<path d="M16440 8650
L16100 9150
" />
<path d="M16630 9150
L16630 8650
L16750 8650
L16820 8680
L16870 8720
L16890 8770
L16910 8870
L16910 8940
L16890 9030
L16870 9080
L16820 9130
L16750 9150
L16630 9150
" />
<path d="M17220 8650
L17270 8650
L17320 8680
L17340 8700
L17370 8750
L17390 8840
L17390 8960
L17370 9060
L17340 9100
L17320 9130
L17270 9150
L17220 9150
L17180 9130
L17150 9100
L17130 9060
L17100 8960
L17100 8840
L17130 8750
L17150 8700
L17180 8680
L17220 8650
" />
</g>
<g style="fill:#840000; fill-opacity:0.0; 
stroke:#840000; stroke-width:60; stroke-opacity:1; 
stroke-linecap:round; stroke-linejoin:round;">
<text x="18720" y="8830"
textLength="1010" font-size="660" lengthAdjust="spacingAndGlyphs"
text-anchor="middle" opacity="0">35</text>
<path d="M18310 8300
L18620 8300
L18450 8490
L18520 8490
L18570 8520
L18600 8540
L18620 8590
L18620 8710
L18600 8750
L18570 8780
L18520 8800
L18380 8800
L18330 8780
L18310 8750
" />
<path d="M19070 8300
L18830 8300
L18810 8540
L18830 8520
L18880 8490
L19000 8490
L19050 8520
L19070 8540
L19100 8590
L19100 8710
L19070 8750
L19050 8780
L19000 8800
L18880 8800
L18830 8780
L18810 8750
" />
<path d="M17720 7930
L19720 7930
" />
</g>
<g style="fill:#008484; fill-opacity:0.0; 
stroke:#008484; stroke-width:60; stroke-opacity:1; 
stroke-linecap:round; stroke-linejoin:round;">
<text x="17520" y="8180"
textLength="1770" font-size="660" lengthAdjust="spacingAndGlyphs"
text-anchor="end" opacity="0">IO22</text>
<path d="M15890 8150
L15890 7650
" />
<path d="M16220 7650
L16320 7650
L16370 7680
L16410 7720
L16440 7820
L16440 7980
L16410 8080
L16370 8130
L16320 8150
L16220 8150
L16180 8130
L16130 8080
L16100 7980
L16100 7820
L16130 7720
L16180 7680
L16220 7650
" />
<path d="M16630 7700
L16650 7680
L16700 7650
L16820 7650
L16870 7680
L16890 7700
L16910 7750
L16910 7790
L16890 7870
L16600 8150
L16910 8150
" />
<path d="M17100 7700
L17130 7680
L17180 7650
L17290 7650
L17340 7680
L17370 7700
L17390 7750
L17390 7790
L17370 7870
L17080 8150
L17390 8150
" />
</g>
<g style="fill:#840000; fill-opacity:0.0; 
stroke:#840000; stroke-width:60; stroke-opacity:1; 
stroke-linecap:round; stroke-linejoin:round;">
<text x="18720" y="7830"
textLength="1010" font-size="660" lengthAdjust="spacingAndGlyphs"
text-anchor="middle" opacity="0">36</text>
<path d="M18310 7300
L18620 7300
L18450 7490
L18520 7490
L18570 7520
L18600 7540
L18620 7590
L18620 7710
L18600 7750
L18570 7780
L18520 7800
L18380 7800
L18330 7780
L18310 7750
" />
<path d="M19050 7300
L18950 7300
L18910 7330
L18880 7350
L18830 7420
L18810 7520
L18810 7710
L18830 7750
L18860 7780
L18910 7800
L19000 7800
L19050 7780
L19070 7750
L19100 7710
L19100 7590
L19070 7540
L19050 7520
L19000 7490
L18910 7490
L18860 7520
L18830 7540
L18810 7590
" />
<path d="M17720 6930
L19720 6930
" />
</g>
<g style="fill:#008484; fill-opacity:0.0; 
stroke:#008484; stroke-width:60; stroke-opacity:1; 
stroke-linecap:round; stroke-linejoin:round;">
<text x="17520" y="7180"
textLength="1770" font-size="660" lengthAdjust="spacingAndGlyphs"
text-anchor="end" opacity="0">IO23</text>
<path d="M15890 7150
L15890 6650
" />
<path d="M16220 6650
L16320 6650
L16370 6680
L16410 6720
L16440 6820
L16440 6980
L16410 7080
L16370 7130
L16320 7150
L16220 7150
L16180 7130
L16130 7080
L16100 6980
L16100 6820
L16130 6720
L16180 6680
L16220 6650
" />
<path d="M16630 6700
L16650 6680
L16700 6650
L16820 6650
L16870 6680
L16890 6700
L16910 6750
L16910 6790
L16890 6870
L16600 7150
L16910 7150
" />
<path d="M17080 6650
L17390 6650
L17220 6840
L17290 6840
L17340 6870
L17370 6890
L17390 6940
L17390 7060
L17370 7100
L17340 7130
L17290 7150
L17150 7150
L17100 7130
L17080 7100
" />
</g>
<g style="fill:#840000; fill-opacity:0.0; 
stroke:#840000; stroke-width:60; stroke-opacity:1; 
stroke-linecap:round; stroke-linejoin:round;">
<text x="18720" y="6830"
textLength="1010" font-size="660" lengthAdjust="spacingAndGlyphs"
text-anchor="middle" opacity="0">37</text>
<path d="M18310 6300
L18620 6300
L18450 6490
L18520 6490
L18570 6520
L18600 6540
L18620 6590
L18620 6710
L18600 6750
L18570 6780
L18520 6800
L18380 6800
L18330 6780
L18310 6750
" />
<path d="M18790 6300
L19120 6300
L18910 6800
" />
<path d="M17720 5930
L19720 5930
" />
</g>
<g style="fill:#008484; fill-opacity:0.0; 
stroke:#008484; stroke-width:60; stroke-opacity:1; 
stroke-linecap:round; stroke-linejoin:round;">
<text x="17520" y="6180"
textLength="1580" font-size="660" lengthAdjust="spacingAndGlyphs"
text-anchor="end" opacity="0">GND</text>
<path d="M16340 5680
L16290 5650
L16220 5650
L16150 5680
L16100 5720
L16080 5770
L16060 5870
L16060 5940
L16080 6030
L16100 6080
L16150 6130
L16220 6150
L16270 6150
L16340 6130
L16370 6100
L16370 5940
L16270 5940
" />
<path d="M16580 6150
L16580 5650
L16870 6150
L16870 5650
" />
<path d="M17100 6150
L17100 5650
L17220 5650
L17290 5680
L17340 5720
L17370 5770
L17390 5870
L17390 5940
L17370 6030
L17340 6080
L17290 6130
L17220 6150
L17100 6150
" />
</g>
<g style="fill:#840000; fill-opacity:0.0; 
stroke:#840000; stroke-width:60; stroke-opacity:1; 
stroke-linecap:round; stroke-linejoin:round;">
<text x="18720" y="5830"
textLength="1010" font-size="660" lengthAdjust="spacingAndGlyphs"
text-anchor="middle" opacity="0">38</text>
<path d="M18310 5300
L18620 5300
L18450 5490
L18520 5490
L18570 5520
L18600 5540
L18620 5590
L18620 5710
L18600 5750
L18570 5780
L18520 5800
L18380 5800
L18330 5780
L18310 5750
" />
<path d="M18910 5520
L18860 5490
L18830 5470
L18810 5420
L18810 5400
L18830 5350
L18860 5330
L18910 5300
L19000 5300
L19050 5330
L19070 5350
L19100 5400
L19100 5420
L19070 5470
L19050 5490
L19000 5520
L18910 5520
L18860 5540
L18830 5560
L18810 5610
L18810 5710
L18830 5750
L18860 5780
L18910 5800
L19000 5800
L19050 5780
L19070 5750
L19100 5710
L19100 5610
L19070 5560
L19050 5540
L19000 5520
" />
<path d="M4220 8930
L2220 8930
" />
</g>
<g style="fill:#008484; fill-opacity:0.0; 
stroke:#008484; stroke-width:60; stroke-opacity:1; 
stroke-linecap:round; stroke-linejoin:round;">
<text x="4420" y="9180"
textLength="1010" font-size="660" lengthAdjust="spacingAndGlyphs"
text-anchor="start" opacity="0">VN</text>
<path d="M4490 8650
L4660 9150
L4830 8650
" />
<path d="M4990 9150
L4990 8650
L5280 9150
L5280 8650
" />
</g>
<g style="fill:#840000; fill-opacity:0.0; 
stroke:#840000; stroke-width:60; stroke-opacity:1; 
stroke-linecap:round; stroke-linejoin:round;">
<text x="3220" y="8830"
textLength="540" font-size="660" lengthAdjust="spacingAndGlyphs"
text-anchor="middle" opacity="0">4</text>
<path d="M3310 8470
L3310 8800
" />
<path d="M3190 8280
L3070 8630
L3380 8630
" />
<path d="M4220 9930
L2220 9930
" />
</g>
<g style="fill:#008484; fill-opacity:0.0; 
stroke:#008484; stroke-width:60; stroke-opacity:1; 
stroke-linecap:round; stroke-linejoin:round;">
<text x="4420" y="10180"
textLength="1770" font-size="660" lengthAdjust="spacingAndGlyphs"
text-anchor="start" opacity="0">IO34</text>
<path d="M4560 10150
L4560 9650
" />
<path d="M4900 9650
L4990 9650
L5040 9680
L5090 9720
L5110 9820
L5110 9980
L5090 10080
L5040 10130
L4990 10150
L4900 10150
L4850 10130
L4800 10080
L4780 9980
L4780 9820
L4800 9720
L4850 9680
L4900 9650
" />
<path d="M5280 9650
L5590 9650
L5420 9840
L5490 9840
L5540 9870
L5560 9890
L5590 9940
L5590 10060
L5560 10100
L5540 10130
L5490 10150
L5350 10150
L5300 10130
L5280 10100
" />
<path d="M6020 9820
L6020 10150
" />
<path d="M5900 9630
L5780 9980
L6090 9980
" />
</g>
<g style="fill:#840000; fill-opacity:0.0; 
stroke:#840000; stroke-width:60; stroke-opacity:1; 
stroke-linecap:round; stroke-linejoin:round;">
<text x="3220" y="9830"
textLength="540" font-size="660" lengthAdjust="spacingAndGlyphs"
text-anchor="middle" opacity="0">5</text>
<path d="M3330 9300
L3100 9300
L3070 9540
L3100 9520
L3140 9490
L3260 9490
L3310 9520
L3330 9540
L3360 9590
L3360 9710
L3330 9750
L3310 9780
L3260 9800
L3140 9800
L3100 9780
L3070 9750
" />
<path d="M4220 10930
L2220 10930
" />
</g>
<g style="fill:#008484; fill-opacity:0.0; 
stroke:#008484; stroke-width:60; stroke-opacity:1; 
stroke-linecap:round; stroke-linejoin:round;">
<text x="4420" y="11180"
textLength="1770" font-size="660" lengthAdjust="spacingAndGlyphs"
text-anchor="start" opacity="0">IO35</text>
<path d="M4560 11150
L4560 10650
" />
<path d="M4900 10650
L4990 10650
L5040 10680
L5090 10720
L5110 10820
L5110 10980
L5090 11080
L5040 11130
L4990 11150
L4900 11150
L4850 11130
L4800 11080
L4780 10980
L4780 10820
L4800 10720
L4850 10680
L4900 10650
" />
<path d="M5280 10650
L5590 10650
L5420 10840
L5490 10840
L5540 10870
L5560 10890
L5590 10940
L5590 11060
L5560 11100
L5540 11130
L5490 11150
L5350 11150
L5300 11130
L5280 11100
" />
<path d="M6040 10650
L5800 10650
L5780 10890
L5800 10870
L5850 10840
L5970 10840
L6020 10870
L6040 10890
L6060 10940
L6060 11060
L6040 11100
L6020 11130
L5970 11150
L5850 11150
L5800 11130
L5780 11100
" />
</g>
<g style="fill:#840000; fill-opacity:0.0; 
stroke:#840000; stroke-width:60; stroke-opacity:1; 
stroke-linecap:round; stroke-linejoin:round;">
<text x="3220" y="10830"
textLength="540" font-size="660" lengthAdjust="spacingAndGlyphs"
text-anchor="middle" opacity="0">6</text>
<path d="M3310 10300
L3220 10300
L3170 10330
L3140 10350
L3100 10420
L3070 10520
L3070 10710
L3100 10750
L3120 10780
L3170 10800
L3260 10800
L3310 10780
L3330 10750
L3360 10710
L3360 10590
L3330 10540
L3310 10520
L3260 10490
L3170 10490
L3120 10520
L3100 10540
L3070 10590
" />
<path d="M4220 11930
L2220 11930
" />
</g>
<g style="fill:#008484; fill-opacity:0.0; 
stroke:#008484; stroke-width:60; stroke-opacity:1; 
stroke-linecap:round; stroke-linejoin:round;">
<text x="4420" y="12180"
textLength="6560" font-size="660" lengthAdjust="spacingAndGlyphs"
text-anchor="start" opacity="0">IO32_XTAL_32K_P</text>
<path d="M4560 12150
L4560 11650
" />
<path d="M4900 11650
L4990 11650
L5040 11680
L5090 11720
L5110 11820
L5110 11980
L5090 12080
L5040 12130
L4990 12150
L4900 12150
L4850 12130
L4800 12080
L4780 11980
L4780 11820
L4800 11720
L4850 11680
L4900 11650
" />
<path d="M5280 11650
L5590 11650
L5420 11840
L5490 11840
L5540 11870
L5560 11890
L5590 11940
L5590 12060
L5560 12100
L5540 12130
L5490 12150
L5350 12150
L5300 12130
L5280 12100
" />
<path d="M5780 11700
L5800 11680
L5850 11650
L5970 11650
L6020 11680
L6040 11700
L6060 11750
L6060 11790
L6040 11870
L5750 12150
L6060 12150
" />
<path d="M6160 12200
L6540 12200
" />
<path d="M6610 11650
L6950 12150
" />
<path d="M6950 11650
L6610 12150
" />
<path d="M7060 11650
L7350 11650
" />
<path d="M7210 12150
L7210 11650
" />
<path d="M7490 12010
L7730 12010
" />
<path d="M7450 12150
L7610 11650
L7780 12150
" />
<path d="M8180 12150
L7950 12150
L7950 11650
" />
<path d="M8230 12200
L8610 12200
" />
<path d="M8680 11650
L8990 11650
L8830 11840
L8900 11840
L8940 11870
L8970 11890
L8990 11940
L8990 12060
L8970 12100
L8940 12130
L8900 12150
L8750 12150
L8710 12130
L8680 12100
" />
<path d="M9180 11700
L9210 11680
L9250 11650
L9370 11650
L9420 11680
L9440 11700
L9470 11750
L9470 11790
L9440 11870
L9160 12150
L9470 12150
" />
<path d="M9680 12150
L9680 11650
" />
<path d="M9970 12150
L9750 11870
" />
<path d="M9970 11650
L9680 11940
" />
<path d="M10060 12200
L10440 12200
" />
<path d="M10560 12150
L10560 11650
L10750 11650
L10800 11680
L10830 11700
L10850 11750
L10850 11820
L10830 11870
L10800 11890
L10750 11910
L10560 11910
" />
</g>
<g style="fill:#840000; fill-opacity:0.0; 
stroke:#840000; stroke-width:60; stroke-opacity:1; 
stroke-linecap:round; stroke-linejoin:round;">
<text x="3220" y="11830"
textLength="540" font-size="660" lengthAdjust="spacingAndGlyphs"
text-anchor="middle" opacity="0">7</text>
<path d="M3050 11300
L3380 11300
L3170 11800
" />
<path d="M4220 12930
L2220 12930
" />
</g>
<g style="fill:#008484; fill-opacity:0.0; 
stroke:#008484; stroke-width:60; stroke-opacity:1; 
stroke-linecap:round; stroke-linejoin:round;">
<text x="4420" y="13180"
textLength="6580" font-size="660" lengthAdjust="spacingAndGlyphs"
text-anchor="start" opacity="0">IO33_XTAL_32K_N</text>
<path d="M4560 13150
L4560 12650
" />
<path d="M4900 12650
L4990 12650
L5040 12680
L5090 12720
L5110 12820
L5110 12980
L5090 13080
L5040 13130
L4990 13150
L4900 13150
L4850 13130
L4800 13080
L4780 12980
L4780 12820
L4800 12720
L4850 12680
L4900 12650
" />
<path d="M5280 12650
L5590 12650
L5420 12840
L5490 12840
L5540 12870
L5560 12890
L5590 12940
L5590 13060
L5560 13100
L5540 13130
L5490 13150
L5350 13150
L5300 13130
L5280 13100
" />
<path d="M5750 12650
L6060 12650
L5900 12840
L5970 12840
L6020 12870
L6040 12890
L6060 12940
L6060 13060
L6040 13100
L6020 13130
L5970 13150
L5830 13150
L5780 13130
L5750 13100
" />
<path d="M6160 13200
L6540 13200
" />
<path d="M6610 12650
L6950 13150
" />
<path d="M6950 12650
L6610 13150
" />
<path d="M7060 12650
L7350 12650
" />
<path d="M7210 13150
L7210 12650
" />
<path d="M7490 13010
L7730 13010
" />
<path d="M7450 13150
L7610 12650
L7780 13150
" />
<path d="M8180 13150
L7950 13150
L7950 12650
" />
<path d="M8230 13200
L8610 13200
" />
<path d="M8680 12650
L8990 12650
L8830 12840
L8900 12840
L8940 12870
L8970 12890
L8990 12940
L8990 13060
L8970 13100
L8940 13130
L8900 13150
L8750 13150
L8710 13130
L8680 13100
" />
<path d="M9180 12700
L9210 12680
L9250 12650
L9370 12650
L9420 12680
L9440 12700
L9470 12750
L9470 12790
L9440 12870
L9160 13150
L9470 13150
" />
<path d="M9680 13150
L9680 12650
" />
<path d="M9970 13150
L9750 12870
" />
<path d="M9970 12650
L9680 12940
" />
<path d="M10060 13200
L10440 13200
" />
<path d="M10560 13150
L10560 12650
L10850 13150
L10850 12650
" />
</g>
<g style="fill:#840000; fill-opacity:0.0; 
stroke:#840000; stroke-width:60; stroke-opacity:1; 
stroke-linecap:round; stroke-linejoin:round;">
<text x="3220" y="12830"
textLength="540" font-size="660" lengthAdjust="spacingAndGlyphs"
text-anchor="middle" opacity="0">8</text>
<path d="M3170 12520
L3120 12490
L3100 12470
L3070 12420
L3070 12400
L3100 12350
L3120 12330
L3170 12300
L3260 12300
L3310 12330
L3330 12350
L3360 12400
L3360 12420
L3330 12470
L3310 12490
L3260 12520
L3170 12520
L3120 12540
L3100 12560
L3070 12610
L3070 12710
L3100 12750
L3120 12780
L3170 12800
L3260 12800
L3310 12780
L3330 12750
L3360 12710
L3360 12610
L3330 12560
L3310 12540
L3260 12520
" />
<path d="M4220 13930
L2220 13930
" />
</g>
<g style="fill:#008484; fill-opacity:0.0; 
stroke:#008484; stroke-width:60; stroke-opacity:1; 
stroke-linecap:round; stroke-linejoin:round;">
<text x="4420" y="14180"
textLength="1770" font-size="660" lengthAdjust="spacingAndGlyphs"
text-anchor="start" opacity="0">IO25</text>
<path d="M4560 14150
L4560 13650
" />
<path d="M4900 13650
L4990 13650
L5040 13680
L5090 13720
L5110 13820
L5110 13980
L5090 14080
L5040 14130
L4990 14150
L4900 14150
L4850 14130
L4800 14080
L4780 13980
L4780 13820
L4800 13720
L4850 13680
L4900 13650
" />
<path d="M5300 13700
L5330 13680
L5370 13650
L5490 13650
L5540 13680
L5560 13700
L5590 13750
L5590 13790
L5560 13870
L5280 14150
L5590 14150
" />
<path d="M6040 13650
L5800 13650
L5780 13890
L5800 13870
L5850 13840
L5970 13840
L6020 13870
L6040 13890
L6060 13940
L6060 14060
L6040 14100
L6020 14130
L5970 14150
L5850 14150
L5800 14130
L5780 14100
" />
</g>
<g style="fill:#840000; fill-opacity:0.0; 
stroke:#840000; stroke-width:60; stroke-opacity:1; 
stroke-linecap:round; stroke-linejoin:round;">
<text x="3220" y="13830"
textLength="540" font-size="660" lengthAdjust="spacingAndGlyphs"
text-anchor="middle" opacity="0">9</text>
<path d="M3120 13800
L3220 13800
L3260 13780
L3290 13750
L3330 13680
L3360 13590
L3360 13400
L3330 13350
L3310 13330
L3260 13300
L3170 13300
L3120 13330
L3100 13350
L3070 13400
L3070 13520
L3100 13560
L3120 13590
L3170 13610
L3260 13610
L3310 13590
L3330 13560
L3360 13520
" />
</g>
<g style="fill:#840084; fill-opacity:0.0; 
stroke:#840084; stroke-width:60; stroke-opacity:1; 
stroke-linecap:round; stroke-linejoin:round;">
</g>
<g style="fill:#008484; fill-opacity:0.0; 
stroke:#008484; stroke-width:60; stroke-opacity:1; 
stroke-linecap:round; stroke-linejoin:round;">
<text x="12220" y="25750"
textLength="8570" font-size="800" lengthAdjust="spacingAndGlyphs"
text-anchor="middle" opacity="0">ESP32-WROVER-B</text>
<path d="M8100 25400
L8300 25400
" />
<path d="M8390 25720
L8100 25720
L8100 25120
L8390 25120
" />
<path d="M8620 25690
L8700 25720
L8840 25720
L8900 25690
L8930 25660
L8960 25600
L8960 25550
L8930 25490
L8900 25460
L8840 25430
L8730 25400
L8670 25370
L8640 25350
L8620 25290
L8620 25230
L8640 25170
L8670 25150
L8730 25120
L8870 25120
L8960 25150
" />
<path d="M9220 25720
L9220 25120
L9440 25120
L9500 25150
L9530 25170
L9560 25230
L9560 25320
L9530 25370
L9500 25400
L9440 25430
L9220 25430
" />
<path d="M9760 25120
L10130 25120
L9930 25350
L10020 25350
L10070 25370
L10100 25400
L10130 25460
L10130 25600
L10100 25660
L10070 25690
L10020 25720
L9840 25720
L9790 25690
L9760 25660
" />
<path d="M10360 25170
L10390 25150
L10440 25120
L10590 25120
L10640 25150
L10670 25170
L10700 25230
L10700 25290
L10670 25370
L10330 25720
L10700 25720
" />
<path d="M10960 25490
L11420 25490
" />
<path d="M11640 25120
L11790 25720
L11900 25290
L12020 25720
L12160 25120
" />
<path d="M12730 25720
L12530 25430
" />
<path d="M12390 25720
L12390 25120
L12620 25120
L12670 25150
L12700 25170
L12730 25230
L12730 25320
L12700 25370
L12670 25400
L12620 25430
L12390 25430
" />
<path d="M13100 25120
L13220 25120
L13270 25150
L13330 25200
L13360 25320
L13360 25520
L13330 25630
L13270 25690
L13220 25720
L13100 25720
L13040 25690
L12990 25630
L12960 25520
L12960 25320
L12990 25200
L13040 25150
L13100 25120
" />
<path d="M13530 25120
L13730 25720
L13930 25120
" />
<path d="M14130 25400
L14330 25400
" />
<path d="M14420 25720
L14130 25720
L14130 25120
L14420 25120
" />
<path d="M15020 25720
L14820 25430
" />
<path d="M14670 25720
L14670 25120
L14900 25120
L14960 25150
L14990 25170
L15020 25230
L15020 25320
L14990 25370
L14960 25400
L14900 25430
L14670 25430
" />
<path d="M15270 25490
L15730 25490
" />
<path d="M16220 25400
L16300 25430
L16330 25460
L16360 25520
L16360 25600
L16330 25660
L16300 25690
L16240 25720
L16020 25720
L16020 25120
L16220 25120
L16270 25150
L16300 25170
L16330 25230
L16330 25290
L16300 25350
L16270 25370
L16220 25400
L16020 25400
" />
<text x="5220" y="25750"
textLength="1200" font-size="800" lengthAdjust="spacingAndGlyphs"
text-anchor="middle" opacity="0">U?</text>
<path d="M4790 25120
L4790 25600
L4820 25660
L4840 25690
L4900 25720
L5020 25720
L5070 25690
L5100 25660
L5130 25600
L5130 25120
" />
<path d="M5500 25660
L5530 25690
L5500 25720
L5470 25690
L5500 25660
L5500 25720
" />
<path d="M5390 25150
L5440 25120
L5590 25120
L5640 25150
L5670 25200
L5670 25260
L5640 25320
L5620 25350
L5560 25370
L5530 25400
L5500 25460
L5500 25490
" />
</g> 
</svg>
